<svg width="178" height="169" viewBox="0 0 178 169" fill="none" xmlns="http://www.w3.org/2000/svg">
<path d="M94.59 168.005C90.65 168.005 86.71 168.005 82.77 168.005C81.04 167.785 79.32 167.545 77.59 167.355C66.91 166.205 56.8 163.085 47.2 158.355C40.43 155.015 34.21 150.786 28.52 145.846C23.53 141.526 19.15 136.585 15.25 131.275C13.04 128.265 10.98 125.085 9.32 121.745C5.67 114.445 2.7 106.865 1.32 98.7655C0.8 95.7155 0.43 92.6455 0 89.5855C0 85.8655 0 82.1455 0 78.4255C0.1 78.0155 0.25 77.6055 0.29 77.1855C0.8 71.2755 1.7 65.4755 3.79 59.8455C5.72 54.6555 7.53 49.4755 10.34 44.6255C14.08 38.1755 18.41 32.2655 23.61 26.9355C27.55 22.8955 31.84 19.3455 36.45 16.1055C43.28 11.2955 50.67 7.6255 58.55 4.9355C70.64 0.805495 83.07 -0.684505 95.83 0.285495C104.66 0.955495 113.18 2.8655 121.45 5.9555C127.96 8.3855 134.11 11.5755 139.86 15.4455C147.55 20.6255 154.24 26.9355 159.98 34.2055C162.06 36.8455 164.1 39.5855 165.69 42.5355C168.14 47.0655 170.57 51.6655 172.34 56.4855C176.42 67.5955 177.78 79.1555 176.71 90.9555C176 98.8355 174.45 106.475 171.34 113.845C167.86 122.095 163.48 129.665 157.68 136.495C153.92 140.925 149.78 144.886 145.25 148.516C138.99 153.536 132.16 157.516 124.8 160.686C117.65 163.766 110.21 165.825 102.53 167.005C99.89 167.405 97.23 167.675 94.59 168.005ZM136.4 69.7955C135.8 69.6955 135.39 69.6055 134.97 69.5555C131.66 69.1955 128.34 68.8555 125.03 68.4755C116.94 67.5355 108.86 66.5655 100.78 65.6455C93.51 64.8155 86.22 64.0555 78.95 63.2355C70.75 62.3055 62.57 61.2855 54.36 60.4355C53 60.2955 52.51 59.8655 52.24 58.5955C50.96 52.4855 49.58 46.4055 48.29 40.2955C48.08 39.3055 47.66 38.9955 46.65 39.0055C41.45 39.0655 36.25 39.0455 31.05 39.0655C30.63 39.0655 30.22 39.1355 29.83 39.1655C29.83 42.0455 29.83 44.8055 29.83 47.7155C33.52 47.7155 37.04 47.7155 40.7 47.7155C45.46 70.7055 50.85 93.4455 54.96 116.506C51.8 117.296 49.2 118.665 47.21 120.925C43.19 125.485 43.21 134.255 49.9 138.645C57.09 143.365 67.36 140.095 69.72 131.805C70.32 129.705 70.08 127.355 70.22 125.095C82.34 125.095 94.64 125.095 107.1 125.095C106.07 127.505 106.36 129.725 107.12 132.135C109.7 140.305 119.7 143.476 127.16 138.406C132.69 134.646 133.75 126.306 129.51 121.116C126.58 117.536 122.66 116.375 118.17 116.385C100.93 116.425 83.69 116.406 66.45 116.406C65.8 116.406 65.15 116.406 64.35 116.406C63.85 113.646 63.38 110.985 62.86 108.095C83.91 108.095 104.74 108.095 125.77 108.095C129.33 95.2855 132.84 82.6055 136.4 69.7955Z" fill="#E6D5B8"/>
<path d="M119.42 132.216C117.39 132.246 115.7 130.696 115.63 128.736C115.55 126.716 117.24 125.046 119.36 125.046C121.47 125.046 123.08 126.516 123.14 128.516C123.21 130.556 121.58 132.186 119.42 132.216Z" fill="#E6D5B8"/>
<path d="M53.4699 128.386C53.5099 126.106 55.6599 125.016 57.5499 125.056C59.4799 125.096 61.0499 126.876 60.9499 128.756C60.8499 130.656 59.1299 132.266 57.2599 132.206C54.9499 132.156 53.3499 130.546 53.4699 128.386Z" fill="#E6D5B8"/>
</svg>
