<svg width="36" height="37" viewBox="0 0 36 37" fill="none" xmlns="http://www.w3.org/2000/svg">
<g clip-path="url(#clip0_82_21)">
<path d="M33.3271 8.14643C33.0222 8.11335 32.7213 8.07727 32.4165 8.04419C32.1781 8.6787 31.7326 9.31321 31.7287 9.94772C31.6779 17.0596 31.7014 24.1715 31.6975 31.2835C31.6975 33.9147 29.3449 35.7431 25.8902 35.7581C20.6145 35.7792 15.3427 35.7822 10.067 35.7581C6.64752 35.7431 4.31447 33.8846 4.31447 31.2414C4.31056 24.1806 4.33401 17.1168 4.28321 10.056C4.2793 9.38538 3.84161 8.71478 3.60323 8.04419C3.33748 8.06825 3.06784 8.0893 2.8021 8.11335C2.66532 8.54939 2.4113 8.98543 2.4113 9.42147C2.38785 16.7349 2.3605 24.0452 2.4113 31.3586C2.43084 34.0019 5.53375 37.1324 9.73479 36.988C15.0652 36.8046 20.423 36.7655 25.7456 36.994C30.7283 37.2075 33.6123 33.9839 33.6163 30.8625C33.6319 23.8017 33.628 16.7379 33.6084 9.67707C33.6045 9.16586 33.4248 8.65765 33.3271 8.14643Z" fill="white"/>
<path d="M29.1845 11.4964C28.9149 11.4814 28.6452 11.4663 28.3756 11.4513C28.1802 11.9775 27.8167 12.5038 27.8128 13.03C27.7698 18.3226 27.762 23.6182 27.8284 28.9108C27.8324 29.3799 28.4029 29.843 28.7116 30.3091C29.0438 29.8611 29.6613 29.419 29.6652 28.968C29.7316 23.6754 29.7238 18.3798 29.6847 13.0872C29.6847 12.5579 29.3604 12.0257 29.1845 11.4964Z" fill="white"/>
<path d="M7.69476 11.4964C7.42511 11.4813 7.15546 11.4633 6.88581 11.4482C6.69041 11.9745 6.32307 12.4977 6.31916 13.027C6.27617 18.3196 6.26836 23.6152 6.33479 28.9078C6.3387 29.3769 6.90926 29.843 7.21408 30.3091C7.55016 29.864 8.16762 29.419 8.17153 28.9709C8.23796 23.6783 8.23014 18.3827 8.19106 13.0901C8.19106 12.5579 7.86671 12.0286 7.69476 11.4964Z" fill="white"/>
<path d="M18.766 20.8667C18.766 18.1662 18.8012 15.4628 18.7309 12.7654C18.7192 12.3294 18.2189 11.8993 17.9454 11.4663C17.707 11.8783 17.2693 12.2873 17.2654 12.6992C17.2185 18.1512 17.2185 23.6032 17.2654 29.0551C17.2693 29.4641 17.7148 29.8701 17.9571 30.2791C18.2268 29.843 18.7152 29.41 18.727 28.9709C18.8051 26.2675 18.766 23.5671 18.766 20.8667Z" fill="white"/>
<path d="M23.5297 11.4513C23.3734 11.4784 23.2132 11.5054 23.0569 11.5295C22.9436 11.7941 22.7286 12.0557 22.7247 12.3204C22.7052 17.9618 22.6974 23.6002 22.7403 29.2416C22.7442 29.5874 23.221 29.9302 23.475 30.2761C23.7291 29.8791 24.198 29.4822 24.2019 29.0852C24.2527 23.6934 24.2527 18.3046 24.2058 12.9128C24.2019 12.4256 23.7642 11.9385 23.5297 11.4513Z" fill="white"/>
<path d="M13.111 11.5475C12.8844 11.5204 12.6616 11.4934 12.435 11.4663C12.2122 12.0437 11.8019 12.618 11.7941 13.1954C11.7433 18.3858 11.7628 23.5761 11.7667 28.7695C11.7667 29.1183 11.7315 29.4822 11.8527 29.8069C11.923 29.9964 12.2747 30.237 12.5092 30.243C12.7437 30.249 13.1228 30.0234 13.197 29.843C13.326 29.5212 13.2947 29.1544 13.2947 28.8055C13.2986 23.516 13.3025 18.2234 13.2908 12.9338C13.2869 12.4737 13.1736 12.0106 13.111 11.5475Z" fill="white"/>
<path d="M33.3271 8.14639C33.4248 8.6546 33.6045 9.16581 33.6045 9.67402C33.6241 16.7348 33.628 23.7986 33.6123 30.8594C33.6045 33.9778 30.7205 37.2045 25.7417 36.991C20.4191 36.7624 15.0574 36.7985 9.73089 36.985C5.52984 37.1293 2.42303 33.9989 2.4074 31.3556C2.35659 24.0452 2.38395 16.7318 2.4074 9.41841C2.4074 8.98238 2.66141 8.54634 2.79819 8.1103C3.06393 8.08624 3.33358 8.06519 3.59932 8.04114C3.8377 8.71173 4.27539 9.38233 4.2793 10.0529C4.3301 17.1137 4.30666 24.1745 4.31056 31.2383C4.31056 33.8816 6.64361 35.737 10.0631 35.7551C15.3388 35.7791 20.6106 35.7761 25.8863 35.7551C29.3449 35.74 31.6935 33.9117 31.6935 31.2804C31.6975 24.1685 31.6779 17.0566 31.7248 9.94466C31.7287 9.31016 32.1742 8.67565 32.4126 8.04114C32.7174 8.08023 33.0222 8.11331 33.3271 8.14639Z" fill="#E6D5B8"/>
<path d="M9.86381 3.90326C11.4426 1.01038 13.8304 -0.0631715 18.6684 0.00298587C21.9667 0.0480932 24.8078 1.13367 26.1052 3.90326C28.6728 3.90326 31.2754 3.96341 33.8742 3.88522C36.2151 3.81606 35.922 4.98884 35.9923 6.14961C36.0666 7.34645 35.6484 7.82158 33.9368 7.81256C23.3267 7.75542 12.7127 7.75843 2.09872 7.80955C0.449565 7.81857 -0.0975477 7.41562 0.0157827 6.17667C0.117389 5.04297 -0.296853 3.81606 2.09481 3.88522C4.69359 3.9604 7.29629 3.90326 9.86381 3.90326ZM34.1478 6.60669C34.3041 6.4413 34.4565 6.27591 34.6128 6.11051C34.1556 5.86693 33.7062 5.42789 33.2372 5.41586C30.7713 5.34369 28.2976 5.41586 25.8317 5.35271C25.3119 5.33767 24.4952 5.04899 24.3467 4.73624C23.1 2.10499 21.0952 0.935203 17.5273 1.19683C14.2016 1.4404 11.9858 2.41171 11.7982 4.13181C11.6732 5.28054 11.0088 5.40684 9.81691 5.3918C7.1048 5.35572 4.39659 5.37977 1.68448 5.37977C1.58287 5.53915 1.48126 5.69553 1.37575 5.8549C1.78217 6.1045 2.17297 6.37213 2.60284 6.59466C2.73962 6.66383 2.98191 6.60669 3.17731 6.60669C13.4982 6.60669 23.823 6.60669 34.1478 6.60669Z" fill="#E6D5B8"/>
<path d="M29.1845 11.4963C29.3604 12.0286 29.6808 12.5578 29.6847 13.0901C29.7238 18.3827 29.7316 23.6783 29.6652 28.9709C29.6613 29.419 29.0438 29.864 28.7116 30.3121C28.4029 29.846 27.8363 29.3799 27.8284 28.9138C27.7659 23.6212 27.7737 18.3256 27.8128 13.033C27.8167 12.5067 28.1802 11.9805 28.3756 11.4542C28.6452 11.4663 28.9149 11.4813 29.1845 11.4963Z" fill="#E6D5B8"/>
<path d="M7.69476 11.4964C7.86671 12.0286 8.19107 12.5579 8.19497 13.0901C8.23405 18.3827 8.24187 23.6783 8.17543 28.9709C8.17153 29.419 7.55016 29.864 7.21799 30.3091C6.91317 29.843 6.34652 29.3769 6.3387 28.9078C6.27617 23.6152 6.28399 18.3196 6.32307 13.027C6.32698 12.5007 6.69041 11.9745 6.88972 11.4482C7.15546 11.4663 7.42511 11.4813 7.69476 11.4964Z" fill="#E6D5B8"/>
<path d="M18.766 20.8666C18.766 23.567 18.8012 26.2705 18.7309 28.9679C18.7192 29.4069 18.2307 29.84 17.961 30.276C17.7187 29.867 17.2732 29.4611 17.2693 29.0521C17.2224 23.6001 17.2224 18.1482 17.2693 12.6962C17.2732 12.2842 17.7109 11.8722 17.9493 11.4633C18.2228 11.8963 18.7231 12.3263 18.7348 12.7623C18.8051 15.4628 18.766 18.1662 18.766 20.8666Z" fill="#E6D5B8"/>
<path d="M23.5297 11.4513C23.7642 11.9385 24.2018 12.4256 24.2057 12.9158C24.2566 18.3076 24.2526 23.6964 24.2018 29.0882C24.1979 29.4852 23.729 29.8821 23.475 30.2791C23.2209 29.9333 22.7442 29.5904 22.7403 29.2446C22.6934 23.6032 22.7051 17.9648 22.7246 12.3234C22.7246 12.0587 22.9396 11.7971 23.0568 11.5325C23.2131 11.5054 23.3734 11.4784 23.5297 11.4513Z" fill="#E6D5B8"/>
<path d="M13.111 11.5475C13.1736 12.0106 13.2869 12.4737 13.2869 12.9338C13.2986 18.2234 13.2947 23.516 13.2908 28.8055C13.2908 29.1544 13.3221 29.5182 13.1931 29.843C13.1189 30.0234 12.7398 30.249 12.5053 30.243C12.2708 30.237 11.923 29.9964 11.8488 29.8069C11.7276 29.4822 11.7628 29.1183 11.7628 28.7695C11.7589 23.5791 11.7394 18.3888 11.7902 13.1954C11.7941 12.618 12.2083 12.0407 12.4311 11.4663C12.6616 11.4964 12.8844 11.5234 13.111 11.5475Z" fill="#E6D5B8"/>
</g>
<defs>
<clipPath id="clip0_82_21">
<rect width="36" height="37" fill="white"/>
</clipPath>
</defs>
</svg>
