<svg width="41" height="42" viewBox="0 0 41 42" fill="none" xmlns="http://www.w3.org/2000/svg">
<path d="M40.4587 20.8456C40.4587 9.33264 31.4019 0 20.2294 0C9.05676 0 0 9.33264 0 20.8456C0 31.2498 7.39645 39.8753 17.0676 41.4379V26.8707H11.9308V20.8456H17.0676V16.2534C17.0676 11.0281 20.0885 8.14367 24.7098 8.14367C26.9245 8.14367 29.2382 8.55132 29.2382 8.55132V13.6809H26.6878C24.1733 13.6809 23.3911 15.2868 23.3911 16.9359V20.8456H29.0014L28.1053 26.8707H23.3911V41.4379C33.0623 39.8753 40.4587 31.2498 40.4587 20.8456Z" fill="#E6D5B8"/>
<path d="M28.1023 26.8707L28.9984 20.8456H23.3911V16.9359C23.3911 15.2868 24.1733 13.6809 26.6877 13.6809H29.2381V8.55132C29.2381 8.55132 26.9245 8.14368 24.7097 8.14368C20.0885 8.14368 17.0675 11.0281 17.0675 16.2534V20.8456H11.9308V26.8707H17.0675V41.4379C18.0985 41.6047 19.1534 41.6911 20.2293 41.6911C21.3052 41.6911 22.3601 41.6047 23.3911 41.4379V26.8707H28.1023Z" fill="#231C19"/>
</svg>
