<svg width="41" height="42" viewBox="0 0 41 42" fill="none" xmlns="http://www.w3.org/2000/svg">
<path d="M20.5912 41.6911C31.7635 41.6911 40.8205 32.3583 40.8205 20.8456C40.8205 9.33288 31.7635 0 20.5912 0C9.41882 0 0.361816 9.33288 0.361816 20.8456C0.361816 32.3583 9.41882 41.6911 20.5912 41.6911Z" fill="#E6D5B8"/>
<path d="M20.5911 10.0862C23.9926 10.0862 24.3942 10.0985 25.7368 10.1634C26.9776 10.222 27.6519 10.4351 28.1014 10.6143C28.6948 10.852 29.1204 11.1362 29.5669 11.5963C30.0135 12.0565 30.2892 12.4919 30.5199 13.1065C30.6938 13.5697 30.9005 14.2645 30.9575 15.5431C31.0174 16.9266 31.0324 17.3435 31.0324 20.8456C31.0324 24.3476 31.0204 24.7645 30.9575 26.1481C30.9005 27.4266 30.6938 28.1214 30.5199 28.5847C30.2892 29.1961 30.0135 29.6347 29.5669 30.0948C29.1204 30.555 28.6978 30.8391 28.1014 31.0769C27.6519 31.256 26.9776 31.4691 25.7368 31.5278C24.3942 31.5895 23.9926 31.605 20.5911 31.605C17.1895 31.605 16.788 31.5926 15.4453 31.5278C14.2046 31.4691 13.5303 31.256 13.0807 31.0769C12.4873 30.8391 12.0618 30.555 11.6152 30.0948C11.1687 29.6347 10.893 29.1992 10.6622 28.5847C10.4884 28.1214 10.2816 27.4266 10.2246 26.1481C10.1647 24.7645 10.1497 24.3476 10.1497 20.8456C10.1497 17.3435 10.1617 16.9266 10.2246 15.5431C10.2816 14.2645 10.4884 13.5697 10.6622 13.1065C10.893 12.495 11.1687 12.0565 11.6152 11.5963C12.0618 11.1362 12.4843 10.852 13.0807 10.6143C13.5303 10.4351 14.2046 10.222 15.4453 10.1634C16.788 10.0985 17.1895 10.0862 20.5911 10.0862ZM20.5911 7.72058C17.1326 7.72058 16.698 7.73602 15.3404 7.80088C13.9858 7.86573 13.0598 8.08499 12.2476 8.41235C11.4114 8.74896 10.7012 9.19676 9.99089 9.92558C9.28361 10.6544 8.84606 11.3863 8.52239 12.251C8.20771 13.0848 7.99192 14.0391 7.92899 15.4381C7.86605 16.837 7.85107 17.2848 7.85107 20.8487C7.85107 24.4125 7.86605 24.8603 7.92899 26.2592C7.99192 27.6551 8.20471 28.6094 8.52239 29.4463C8.84905 30.3079 9.28361 31.0398 9.99089 31.7717C10.6982 32.5006 11.4084 32.9514 12.2476 33.285C13.0568 33.6092 13.9828 33.8316 15.3404 33.8964C16.698 33.9613 17.1326 33.9767 20.5911 33.9767C24.0495 33.9767 24.4841 33.9613 25.8417 33.8964C27.1963 33.8316 28.1224 33.6123 28.9345 33.285C29.7707 32.9484 30.481 32.5006 31.1913 31.7717C31.8985 31.0429 32.3361 30.311 32.6597 29.4463C32.9744 28.6125 33.1902 27.6582 33.2532 26.2592C33.3161 24.8603 33.3311 24.4125 33.3311 20.8487C33.3311 17.2848 33.3161 16.837 33.2532 15.4381C33.1902 14.0422 32.9774 13.0879 32.6597 12.251C32.3331 11.3894 31.8985 10.6575 31.1913 9.92558C30.484 9.19676 29.7737 8.74587 28.9345 8.41235C28.1254 8.08808 27.1993 7.86573 25.8417 7.80088C24.4841 7.73602 24.0495 7.72058 20.5911 7.72058Z" fill="#231C19"/>
<path d="M20.5911 14.1071C16.9798 14.1071 14.0518 17.1243 14.0518 20.8456C14.0518 24.5669 16.9798 27.5841 20.5911 27.5841C24.2024 27.5841 27.1304 24.5669 27.1304 20.8456C27.1304 17.1243 24.2024 14.1071 20.5911 14.1071ZM20.5911 25.2216C18.2475 25.2216 16.3444 23.2637 16.3444 20.8456C16.3444 18.4275 18.2445 16.4696 20.5911 16.4696C22.9347 16.4696 24.8377 18.4275 24.8377 20.8456C24.8377 23.2637 22.9347 25.2216 20.5911 25.2216Z" fill="#231C19"/>
<path d="M27.3911 15.4133C28.2353 15.4133 28.9196 14.7082 28.9196 13.8383C28.9196 12.9685 28.2353 12.2633 27.3911 12.2633C26.547 12.2633 25.8627 12.9685 25.8627 13.8383C25.8627 14.7082 26.547 15.4133 27.3911 15.4133Z" fill="#231C19"/>
</svg>
