<svg width="48" height="36" viewBox="0 0 48 36" fill="none" xmlns="http://www.w3.org/2000/svg">
<path d="M8.93822 36C8.74754 36 8.55421 35.9846 8.35823 35.9562H6.8619C4.14733 35.9562 1.9386 34.0176 1.9386 31.6336V29.0307C0.709761 28.0858 0 26.7368 0 25.2796V25.0556C0 23.5984 0.709761 22.2493 1.93595 21.3044V19.3684C1.93595 8.68912 11.8355 0 23.9994 0C36.166 0 46.0629 8.68912 46.0629 19.3684V21.3044C47.2891 22.2493 47.9989 23.6009 47.9989 25.0556V25.2796C47.9989 26.7342 47.2891 28.0858 46.0629 29.0307V31.6336C46.0629 34.0176 43.8542 35.9562 41.1396 35.9562H9.52086C9.32488 35.9871 9.1289 36 8.93822 36Z" fill="#E6D5B8"/>
<path d="M39.0051 33.8863H8.99384C6.39845 33.8863 4.293 31.8395 4.293 29.3164V28.23H43.7033V29.3164C43.7059 31.8421 41.6005 33.8863 39.0051 33.8863Z" fill="#4A3933"/>
<path d="M41.1397 34.4965H6.86194C5.0637 34.4965 3.60181 33.2144 3.60181 31.6362V28.2326C3.60181 27.8953 3.91166 27.625 4.29568 27.625H43.7059C44.0899 27.625 44.3998 27.8979 44.3998 28.2326V31.6362C44.3998 33.2118 42.9379 34.4965 41.1397 34.4965ZM4.98955 28.8402V31.6362C4.98955 32.5424 5.82908 33.2787 6.86194 33.2787H41.1423C42.1752 33.2787 43.0147 32.5424 43.0147 31.6362V28.8402H4.98955Z" fill="#E6D5B8"/>
<path d="M42.4929 28.2297H5.50854C3.76857 28.2297 2.35699 26.8575 2.35699 25.166C2.35699 23.4745 3.76857 22.1023 5.50854 22.1023H42.4903C44.2302 22.1023 45.6418 23.4745 45.6418 25.166C45.6418 26.8601 44.2329 28.2297 42.4929 28.2297Z" fill="#4A3933"/>
<path d="M42.2811 28.8402H5.71782C3.4826 28.8402 1.66318 27.244 1.66318 25.2822V25.0556C1.66318 23.0938 3.4826 21.4976 5.71782 21.4976H42.2811C44.5163 21.4976 46.3357 23.0938 46.3357 25.0556V25.2822C46.3357 27.244 44.5163 28.8402 42.2811 28.8402ZM5.71782 22.7153C4.24798 22.7153 3.05092 23.7657 3.05092 25.0556V25.2822C3.05092 26.572 4.24798 27.6224 5.71782 27.6224H42.2811C43.7509 27.6224 44.948 26.572 44.948 25.2822V25.0556C44.948 23.7657 43.7509 22.7153 42.2811 22.7153H5.71782Z" fill="#E6D5B8"/>
<path d="M15.2519 28.2271V31.1234C15.2519 31.7336 14.6852 32.2331 13.9886 32.2331C13.2921 32.2331 12.7254 31.7362 12.7254 31.1234V30.6137C12.7254 30.3073 12.5824 30.0318 12.3573 29.8284C12.1242 29.6302 11.809 29.5066 11.4621 29.5066C10.7656 29.5066 10.1988 30.0035 10.1988 30.6162V32.8226C10.1988 33.4328 9.63209 33.9323 8.93557 33.9323C8.58864 33.9323 8.27083 33.8087 8.04572 33.6104C7.81267 33.4071 7.6723 33.129 7.6723 32.8252V28.2322H15.2519V28.2271Z" fill="#4A3933"/>
<path d="M8.93822 34.5401C8.41649 34.5401 7.92654 34.3625 7.55842 34.0407C7.18765 33.7137 6.98108 33.2812 6.98108 32.8229V28.2299C6.98108 27.8926 7.29094 27.6223 7.67495 27.6223H15.2519C15.6359 27.6223 15.9458 27.8952 15.9458 28.2299V31.1263C15.9458 32.0737 15.0692 32.8435 13.9886 32.8435C12.9108 32.8435 12.0315 32.0737 12.0315 31.1263V30.6165C12.0315 30.4852 11.9732 30.3591 11.8673 30.2612C11.7561 30.1685 11.6104 30.1171 11.4621 30.1171C11.147 30.1171 10.8927 30.341 10.8927 30.6165V32.8229C10.8927 33.7704 10.0161 34.5401 8.93822 34.5401ZM8.36882 28.8375V32.8229C8.36882 32.9568 8.42973 33.0829 8.53832 33.1782C8.64425 33.2709 8.78461 33.3224 8.93822 33.3224C9.25337 33.3224 9.50762 33.0984 9.50762 32.8229V30.6165C9.50762 29.6691 10.3842 28.8993 11.4648 28.8993C11.9812 28.8993 12.4711 29.0744 12.8446 29.3936C12.8498 29.3988 12.8525 29.4013 12.8578 29.4065C13.2206 29.7334 13.4219 30.1634 13.4219 30.6165V31.1263C13.4219 31.4018 13.6761 31.6257 13.9913 31.6257C14.3064 31.6257 14.5607 31.4018 14.5607 31.1263V28.8401H8.36882V28.8375Z" fill="#E6D5B8"/>
<path d="M39.6989 21.3251L22.0661 28.8351L4.43069 21.3251L22.0661 16.1812L39.6989 21.3251Z" fill="#4A3933"/>
<path d="M22.0661 29.4451C21.9629 29.4451 21.8596 29.4245 21.7642 29.3833L4.12879 21.8733C3.87455 21.7652 3.72095 21.5335 3.73948 21.2863C3.75802 21.0392 3.94606 20.8255 4.21354 20.7482L21.8463 15.6017C21.9893 15.5605 22.1429 15.5605 22.2833 15.6017L39.9187 20.7457C40.1862 20.8229 40.3743 21.0366 40.3928 21.2837C40.4113 21.5309 40.2577 21.7626 40.0035 21.8707L22.3681 29.3807C22.2727 29.4245 22.1694 29.4451 22.0661 29.4451ZM6.26867 21.4305L22.0661 28.1578L37.8636 21.4305L22.0661 16.822L6.26867 21.4305Z" fill="#E6D5B8"/>
<path d="M11.3826 24.844C14.6926 24.844 17.3759 23.5969 17.3759 22.0584C17.3759 20.5199 14.6926 19.2727 11.3826 19.2727C8.07267 19.2727 5.3894 20.5199 5.3894 22.0584C5.3894 23.5969 8.07267 24.844 11.3826 24.844Z" fill="#4A3933"/>
<path d="M11.3827 25.4518C7.63259 25.4518 4.69556 23.9612 4.69556 22.056C4.69556 20.1508 7.63259 18.6602 11.3827 18.6602C15.1327 18.6602 18.0698 20.1508 18.0698 22.056C18.0698 23.9612 15.1327 25.4518 11.3827 25.4518ZM11.3827 19.8805C8.26025 19.8805 6.0833 21.0287 6.0833 22.0586C6.0833 23.0884 8.26025 24.2366 11.3827 24.2366C14.5077 24.2366 16.682 23.0884 16.682 22.0586C16.682 21.0287 14.5051 19.8805 11.3827 19.8805Z" fill="#E6D5B8"/>
<path d="M23.0169 24.844C26.3269 24.844 29.0101 23.5969 29.0101 22.0584C29.0101 20.5199 26.3269 19.2727 23.0169 19.2727C19.7069 19.2727 17.0237 20.5199 17.0237 22.0584C17.0237 23.5969 19.7069 24.844 23.0169 24.844Z" fill="#4A3933"/>
<path d="M23.0169 25.4518C19.2668 25.4518 16.3298 23.9612 16.3298 22.056C16.3298 20.1508 19.2668 18.6602 23.0169 18.6602C26.767 18.6602 29.704 20.1508 29.704 22.056C29.704 23.9612 26.767 25.4518 23.0169 25.4518ZM23.0169 19.8805C19.8918 19.8805 17.7175 21.0287 17.7175 22.0586C17.7175 23.0884 19.8945 24.2366 23.0169 24.2366C26.1393 24.2366 28.3163 23.0884 28.3163 22.0586C28.3189 21.0287 26.142 19.8805 23.0169 19.8805Z" fill="#E6D5B8"/>
<path d="M23.9995 2.06982C13.1173 2.06982 4.293 10.6457 4.293 21.2271V22.105H43.7033V21.2271C43.7059 10.6457 34.8842 2.06982 23.9995 2.06982Z" fill="#4A3933"/>
<path d="M43.7059 22.7154H4.29568C3.91166 22.7154 3.60181 22.4425 3.60181 22.1078V19.3684C3.60181 9.49502 12.7519 1.4624 23.9995 1.4624C35.2471 1.4624 44.3972 9.49502 44.3972 19.3684V22.1052C44.3998 22.4425 44.0873 22.7154 43.7059 22.7154ZM4.98955 21.4976H43.0121V19.3684C43.0121 10.167 34.4843 2.68017 23.9995 2.68017C13.5146 2.68017 4.98955 10.167 4.98955 19.3684V21.4976Z" fill="#E6D5B8"/>
<path d="M20.199 11.7555C20.5998 11.7555 20.9247 11.4708 20.9247 11.1196C20.9247 10.7684 20.5998 10.4836 20.199 10.4836C19.7983 10.4836 19.4734 10.7684 19.4734 11.1196C19.4734 11.4708 19.7983 11.7555 20.199 11.7555Z" fill="#F69554"/>
<path d="M20.1991 12.3657C19.4178 12.3657 18.7795 11.807 18.7795 11.1196C18.7795 10.4322 19.4151 9.87354 20.1991 9.87354C20.983 9.87354 21.6186 10.4322 21.6186 11.1196C21.6186 11.807 20.9803 12.3657 20.1991 12.3657ZM20.1991 11.0913C20.1805 11.0913 20.1673 11.1042 20.1673 11.1196C20.1673 11.1505 20.2308 11.1505 20.2308 11.1196C20.2282 11.1042 20.215 11.0913 20.1991 11.0913Z" fill="#E6D5B8"/>
<path d="M9.12885 16.3302C9.52962 16.3302 9.8545 16.0455 9.8545 15.6943C9.8545 15.3431 9.52962 15.0583 9.12885 15.0583C8.72808 15.0583 8.4032 15.3431 8.4032 15.6943C8.4032 16.0455 8.72808 16.3302 9.12885 16.3302Z" fill="#F69554"/>
<path d="M9.12887 16.938C8.34761 16.938 7.70935 16.3793 7.70935 15.6919C7.70935 15.0045 8.34496 14.4458 9.12887 14.4458C9.91279 14.4458 10.5484 15.0045 10.5484 15.6919C10.5484 16.3793 9.91014 16.938 9.12887 16.938ZM9.12887 15.6661C9.11033 15.6661 9.09709 15.679 9.09709 15.6945C9.09709 15.7254 9.16065 15.7254 9.16065 15.6945C9.16065 15.679 9.14476 15.6661 9.12887 15.6661Z" fill="#E6D5B8"/>
<path d="M34.9478 14.4203C35.3485 14.4203 35.6734 14.1356 35.6734 13.7844C35.6734 13.4331 35.3485 13.1484 34.9478 13.1484C34.547 13.1484 34.2221 13.4331 34.2221 13.7844C34.2221 14.1356 34.547 14.4203 34.9478 14.4203Z" fill="#F69554"/>
<path d="M34.9478 15.0303C34.1665 15.0303 33.5283 14.4716 33.5283 13.7842C33.5283 13.0968 34.1639 12.5381 34.9478 12.5381C35.729 12.5381 36.3673 13.0968 36.3673 13.7842C36.3647 14.4716 35.729 15.0303 34.9478 15.0303ZM34.9478 13.7559C34.9292 13.7559 34.916 13.7687 34.916 13.7842C34.916 13.8151 34.9796 13.8151 34.9796 13.7842C34.9796 13.7687 34.9637 13.7559 34.9478 13.7559Z" fill="#E6D5B8"/>
<path d="M15.7603 7.77744C16.1611 7.77744 16.486 7.49274 16.486 7.14153C16.486 6.79032 16.1611 6.50562 15.7603 6.50562C15.3596 6.50562 15.0347 6.79032 15.0347 7.14153C15.0347 7.49274 15.3596 7.77744 15.7603 7.77744Z" fill="#F69554"/>
<path d="M15.7604 8.38524C14.9791 8.38524 14.3409 7.82656 14.3409 7.13915C14.3409 6.45174 14.9765 5.89307 15.7604 5.89307C16.5443 5.89307 17.1799 6.45174 17.1799 7.13915C17.1799 7.82656 16.5416 8.38524 15.7604 8.38524ZM15.7604 7.11341C15.7418 7.11341 15.7286 7.12628 15.7286 7.14173C15.7286 7.17262 15.7922 7.17262 15.7922 7.14173C15.7922 7.12628 15.7789 7.11341 15.7604 7.11341Z" fill="#E6D5B8"/>
<path d="M21.6476 5.91148C22.0484 5.91148 22.3733 5.62677 22.3733 5.27556C22.3733 4.92436 22.0484 4.63965 21.6476 4.63965C21.2469 4.63965 20.922 4.92436 20.922 5.27556C20.922 5.62677 21.2469 5.91148 21.6476 5.91148Z" fill="#F69554"/>
<path d="M21.6477 6.52147C20.8664 6.52147 20.2281 5.96279 20.2281 5.27538C20.2281 4.58798 20.8638 4.0293 21.6477 4.0293C22.4289 4.0293 23.0672 4.58798 23.0672 5.27538C23.0672 5.96279 22.4289 6.52147 21.6477 6.52147ZM21.6477 5.24706C21.6291 5.24706 21.6159 5.25993 21.6159 5.27538C21.6159 5.30628 21.6795 5.30628 21.6795 5.27538C21.6795 5.25993 21.6662 5.24706 21.6477 5.24706Z" fill="#E6D5B8"/>
<path d="M15.7603 15.692C16.1611 15.692 16.486 15.4073 16.486 15.0561C16.486 14.7049 16.1611 14.4202 15.7603 14.4202C15.3596 14.4202 15.0347 14.7049 15.0347 15.0561C15.0347 15.4073 15.3596 15.692 15.7603 15.692Z" fill="#F69554"/>
<path d="M15.7604 16.302C14.9791 16.302 14.3409 15.7433 14.3409 15.0559C14.3409 14.3685 14.9765 13.8098 15.7604 13.8098C16.5443 13.8098 17.1799 14.3685 17.1799 15.0559C17.1799 15.7433 16.5416 16.302 15.7604 16.302ZM15.7604 15.0302C15.7418 15.0302 15.7286 15.043 15.7286 15.0585C15.7286 15.0894 15.7922 15.0894 15.7922 15.0585C15.7922 15.043 15.7789 15.0302 15.7604 15.0302Z" fill="#E6D5B8"/>
<path d="M11.4621 11.7555C11.8628 11.7555 12.1877 11.4708 12.1877 11.1196C12.1877 10.7684 11.8628 10.4836 11.4621 10.4836C11.0613 10.4836 10.7364 10.7684 10.7364 11.1196C10.7364 11.4708 11.0613 11.7555 11.4621 11.7555Z" fill="#F69554"/>
<path d="M11.4621 12.3657C10.6808 12.3657 10.0426 11.807 10.0426 11.1196C10.0426 10.4322 10.6782 9.87354 11.4621 9.87354C12.2434 9.87354 12.8816 10.4322 12.8816 11.1196C12.8816 11.807 12.246 12.3657 11.4621 12.3657ZM11.4621 11.0913C11.4436 11.0913 11.4303 11.1042 11.4303 11.1196C11.4303 11.1505 11.4939 11.1505 11.4939 11.1196C11.4939 11.1042 11.4806 11.0913 11.4621 11.0913Z" fill="#E6D5B8"/>
<path d="M41.9871 22.105V26.129C41.9871 26.7366 41.423 27.2361 40.7238 27.2361C40.0247 27.2361 39.4605 26.7366 39.4605 26.129V25.2176C39.4605 24.61 38.8912 24.1106 38.1973 24.1106H38.192C37.4981 24.1106 36.9287 24.61 36.9287 25.2176V27.8282C36.9287 28.4358 36.3646 28.9353 35.6654 28.9353C34.9689 28.9353 34.4022 28.4358 34.4022 27.8282V24.489C34.4022 24.1826 34.2618 23.9072 34.0314 23.7064C33.8037 23.5055 33.4885 23.382 33.1389 23.382C32.4424 23.382 31.8756 23.8814 31.8756 24.489V26.129C31.8756 26.7366 31.3062 27.2361 30.6124 27.2361H30.6071C29.9132 27.2361 29.3438 26.7366 29.3438 26.129V22.105H41.9871Z" fill="#4A3933"/>
<path d="M35.6734 29.5456C34.5955 29.5456 33.7189 28.7758 33.7189 27.8284V24.4892C33.7189 24.3553 33.6607 24.2292 33.5521 24.1365C33.4462 24.0412 33.3031 23.9897 33.1495 23.9897C32.837 23.9897 32.5801 24.2137 32.5801 24.4892V26.1292C32.5801 27.0766 31.7035 27.8464 30.6257 27.8464C29.5425 27.8464 28.6659 27.0766 28.6659 26.1292V22.1052C28.6659 21.7679 28.9757 21.4976 29.3597 21.4976H41.9898C42.3738 21.4976 42.6836 21.7705 42.6836 22.1052V26.1292C42.6836 27.0766 41.807 27.8464 40.7291 27.8464C39.6513 27.8464 38.7747 27.0766 38.7747 26.1292V25.2178C38.7747 24.9475 38.5151 24.7183 38.2053 24.7183C37.8928 24.7183 37.6332 24.9475 37.6332 25.2178V27.8284C37.6279 28.7758 36.7513 29.5456 35.6734 29.5456ZM33.1469 22.772C33.6686 22.772 34.1612 22.9496 34.5293 23.274C34.8975 23.5984 35.1014 24.0283 35.1014 24.4892V27.8284C35.1014 28.1039 35.3556 28.3279 35.6708 28.3279C35.9833 28.3279 36.2402 28.1039 36.2402 27.8284V25.2178C36.2402 24.2704 37.1168 23.5006 38.1947 23.5006C39.2778 23.5006 40.1545 24.2704 40.1545 25.2178V26.1292C40.1545 26.4047 40.4087 26.6286 40.7239 26.6286C41.0364 26.6286 41.2932 26.4047 41.2932 26.1292V22.7153H30.051V26.1318C30.051 26.4021 30.3105 26.6312 30.6204 26.6312C30.9329 26.6312 31.1924 26.4021 31.1924 26.1318V24.4918C31.1924 23.5418 32.069 22.772 33.1469 22.772Z" fill="#E6D5B8"/>
</svg>
