<svg width="52" height="49" viewBox="0 0 52 49" fill="none" xmlns="http://www.w3.org/2000/svg">
<path d="M0 26.2242C0 25.0472 0 23.8668 0 22.6898C0.0300366 22.5687 0.0767602 22.4477 0.0901097 22.3233C0.23028 20.9411 0.400488 19.5725 0.857711 18.2408C1.33496 16.8553 1.7488 15.4563 2.42963 14.1415C3.24729 12.5643 4.12502 11.0409 5.3098 9.71932C6.28766 8.62976 7.2822 7.54692 8.36018 6.56161C9.2279 5.76798 10.2124 5.09877 11.1769 4.41611C13.0459 3.09452 15.1117 2.16637 17.2644 1.42655C19.4537 0.676631 21.7098 0.229373 24.0126 0.071319C26.529 -0.103549 29.0354 0.0376906 31.505 0.555569C35.9805 1.49044 39.992 3.42744 43.4796 6.40019C44.4475 7.22409 45.392 8.11188 46.1829 9.10392C47.2576 10.4524 48.2421 11.8917 49.1398 13.368C49.7473 14.3701 50.2011 15.4832 50.6083 16.5896C51.2758 18.4123 51.6529 20.3123 51.8131 22.2526C51.8265 22.404 51.9332 22.5452 51.9967 22.6932C51.9967 23.8399 51.9967 24.9866 51.9967 26.13C51.9332 26.2813 51.8298 26.4259 51.8164 26.5806C51.5928 28.7261 51.2724 30.8514 50.348 32.8288C49.7473 34.1134 49.1298 35.3913 48.4724 36.6422C48.1753 37.2072 47.7482 37.7083 47.391 38.243C46.4633 39.6318 45.3419 40.8492 44.097 41.9488C43.3628 42.5978 42.6019 43.2132 41.8443 43.832C41.7308 43.9262 41.574 43.9699 41.3804 44.064C41.3804 42.8097 41.4038 41.6193 41.3737 40.4288C41.3237 38.4985 41.06 36.6086 40.0721 34.9003C39.5682 34.0293 39.0576 33.1617 38.4902 32.3311C37.7293 31.2113 36.7181 30.3369 35.6367 29.5231C34.1249 28.3865 32.4629 27.5861 30.6573 27.0716C28.1409 26.3553 25.5878 26.2847 23.0114 26.6916C20.0044 27.1691 17.3812 28.4739 15.1051 30.4815C13.977 31.4769 13.0526 32.6707 12.295 33.9688C11.5207 35.2937 10.9367 36.7465 10.7498 38.2665C10.5395 39.9614 10.5862 41.6899 10.5228 43.4049C10.5161 43.6033 10.5228 43.8017 10.5228 44.1347C9.57499 43.378 8.69058 42.7458 7.89295 42.0194C6.18754 40.4624 4.71908 38.6869 3.48424 36.7297C2.94692 35.8789 2.45966 34.9844 2.05917 34.0629C1.32828 32.3849 0.747577 30.6429 0.390476 28.8404C0.220268 27.9829 0.126821 27.0985 0 26.2242ZM25.3542 22.7167C29.1021 22.7167 31.6552 21.2841 33.0736 18.7687C34.5187 16.2029 34.4653 13.5462 32.7699 11.0073C31.8354 9.60834 30.5806 8.64657 29.042 8.0648C26.9528 7.27453 24.8603 7.28798 22.7711 8.12869C20.4783 9.05011 18.9397 10.7114 18.1721 13.0183C17.6448 14.6089 17.6782 16.2533 18.4358 17.8238C18.8363 18.651 19.2434 19.4413 19.8942 20.1273C21.5663 21.8827 23.6088 22.6696 25.3542 22.7167Z" fill="#E6D5B8"/>
<path d="M39.468 42.5002C39.468 43.2804 39.4413 44.0606 39.4781 44.8408C39.4947 45.2342 39.3512 45.4427 39.0208 45.6142C36.5545 46.8888 33.9814 47.8438 31.2514 48.365C28.6415 48.8661 26.015 48.9973 23.3751 48.7484C21.2492 48.5466 19.1533 48.1666 17.1542 47.3999C15.6857 46.8383 14.2673 46.1523 12.8323 45.4999C12.6988 45.4394 12.5486 45.2241 12.5486 45.0829C12.5553 43.1896 12.5553 41.2963 12.6253 39.4064C12.6787 38.0445 13.0559 36.7363 13.6699 35.5257C14.4075 34.0629 15.3754 32.748 16.6169 31.682C19.4436 29.2607 22.7343 28.1947 26.4422 28.3057C29.2589 28.3898 31.8387 29.1464 34.1582 30.7807C35.293 31.5777 36.3209 32.479 37.0818 33.6459C37.6024 34.4462 38.063 35.2903 38.5102 36.1344C39.3646 37.7519 39.4747 39.5208 39.468 41.3064C39.468 41.7066 39.468 42.1034 39.468 42.5002Z" fill="#E6D5B8"/>
<path d="M32.1157 14.6424C32.1524 17.9716 29.853 20.2987 27.1897 20.7662C25.1706 21.1226 23.345 20.6586 21.7698 19.2966C19.4103 17.2554 19.4269 13.9463 20.8053 12.006C22.2003 10.0421 24.1827 9.1509 26.5823 9.36948C28.3678 9.5309 29.8496 10.3178 30.9677 11.7706C31.7319 12.7626 32.1291 13.8589 32.1157 14.6424Z" fill="#E6D5B8"/>
</svg>
