<svg width="41" height="42" viewBox="0 0 41 42" fill="none" xmlns="http://www.w3.org/2000/svg">
<path d="M20.3609 42C31.5333 42 40.5903 32.6671 40.5903 21.1544C40.5903 9.64172 31.5333 0.308838 20.3609 0.308838C9.18858 0.308838 0.131592 9.64172 0.131592 21.1544C0.131592 32.6671 9.18858 42 20.3609 42Z" fill="#E6D5B8"/>
<path d="M26.4326 34.3072H22.168C18.3289 34.3072 15.4668 32.2721 15.4668 27.4019V19.6041H11.9784V15.3825C15.8175 14.3541 17.4238 10.9509 17.6096 8.00165H21.5956V14.6969H26.2468V19.6041H21.5956V26.3952C21.5956 28.4303 22.5935 29.1344 24.1789 29.1344H26.4296V34.3072H26.4326Z" fill="#231C19"/>
</svg>
