<svg width="41" height="42" viewBox="0 0 41 42" fill="none" xmlns="http://www.w3.org/2000/svg">
<path d="M20.7706 41.6911C31.943 41.6911 41 32.3583 41 20.8456C41 9.33288 31.943 0 20.7706 0C9.59825 0 0.54126 9.33288 0.54126 20.8456C0.54126 32.3583 9.59825 41.6911 20.7706 41.6911Z" fill="#E6D5B8"/>
<path fill-rule="evenodd" clip-rule="evenodd" d="M30.5047 11.0744C28.0831 8.57602 24.8584 7.19867 21.4269 7.19867C14.3541 7.19867 8.59702 13.1281 8.59402 20.4163C8.59402 22.7448 9.18443 25.0209 10.3083 27.0251L8.48914 33.8748L15.2922 32.0373C17.1653 33.0904 19.2781 33.6463 21.4239 33.6463H21.4299C28.5027 33.6463 34.2598 27.7169 34.2628 20.4256C34.2598 16.8957 32.9262 13.5728 30.5047 11.0744ZM21.4239 31.4135H21.4209C19.5059 31.4135 17.6298 30.8823 15.9935 29.8817L15.6039 29.6439L11.567 30.7341L12.6459 26.6792L12.3912 26.2623C11.3242 24.5144 10.7608 22.4916 10.7608 20.4163C10.7638 14.3572 15.5469 9.42837 21.4329 9.42837C24.283 9.42837 26.9593 10.5741 28.9732 12.6494C30.9872 14.7278 32.096 17.4856 32.093 20.4225C32.09 26.4847 27.3039 31.4135 21.4239 31.4135ZM27.277 23.1834C26.9563 23.0166 25.3799 22.2198 25.0862 22.1087C24.7925 21.9975 24.5797 21.9419 24.3639 22.2754C24.1511 22.6059 23.5368 23.3501 23.348 23.5694C23.1622 23.7887 22.9734 23.8164 22.6527 23.6528C22.332 23.486 21.2981 23.1401 20.0753 22.0129C19.1223 21.1359 18.4779 20.055 18.2921 19.7245C18.1063 19.3941 18.2711 19.215 18.433 19.0513C18.5768 18.9031 18.7536 18.6653 18.9125 18.4738C19.0713 18.2823 19.1253 18.1434 19.2332 17.9241C19.3411 17.7048 19.2871 17.5103 19.2062 17.3466C19.1253 17.1798 18.4839 15.5554 18.2172 14.8945C17.9565 14.2491 17.6927 14.3387 17.4949 14.3263C17.3091 14.317 17.0934 14.314 16.8806 14.314C16.6678 14.314 16.3201 14.3973 16.0264 14.7278C15.7327 15.0582 14.9056 15.8581 14.9056 17.4825C14.9056 19.1069 16.0534 20.6788 16.2152 20.8981C16.3771 21.1173 18.4749 24.4557 21.6937 25.8856C22.4579 26.2253 23.0573 26.4291 23.5218 26.5804C24.289 26.8306 24.9903 26.7966 25.5417 26.7101C26.1591 26.6144 27.4388 25.9103 27.7055 25.1382C27.9722 24.3662 27.9722 23.7053 27.8913 23.5663C27.8104 23.4335 27.5976 23.3501 27.277 23.1834Z" fill="#231C19"/>
</svg>
